<svg width="14" height="16" viewBox="0 0 14 16" fill="none" xmlns="http://www.w3.org/2000/svg">
<path d="M4.83333 4.00065C4.83333 2.80403 5.80338 1.83398 7 1.83398C8.19662 1.83398 9.16667 2.80403 9.16667 4.00065C9.16667 5.19727 8.19662 6.16732 7 6.16732C5.80338 6.16732 4.83333 5.19727 4.83333 4.00065ZM7 0.833984C5.2511 0.833984 3.83333 2.25175 3.83333 4.00065C3.83333 5.74955 5.2511 7.16732 7 7.16732C8.7489 7.16732 10.1667 5.74955 10.1667 4.00065C10.1667 2.25175 8.7489 0.833984 7 0.833984ZM7 8.16732C3.41016 8.16732 0.5 11.0775 0.5 14.6673C0.5 14.9435 0.723858 15.1673 1 15.1673C1.27614 15.1673 1.5 14.9435 1.5 14.6673C1.5 11.6298 3.96244 9.16732 7 9.16732C10.0376 9.16732 12.5 11.6298 12.5 14.6673C12.5 14.9435 12.7239 15.1673 13 15.1673C13.2761 15.1673 13.5 14.9435 13.5 14.6673C13.5 11.0775 10.5898 8.16732 7 8.16732Z" fill="#3337BF"/>
</svg>
